<?xml version="1.0" standalone="no"?><!DOCTYPE svg PUBLIC "-//W3C//DTD SVG 1.1//EN" "http://www.w3.org/Graphics/SVG/1.1/DTD/svg11.dtd"><svg t="1679933657217" class="icon" viewBox="0 0 1024 1024" version="1.1" xmlns="http://www.w3.org/2000/svg" p-id="2825" xmlns:xlink="http://www.w3.org/1999/xlink" width="200" height="200"><path d="M612.352 907.776H410.112c-10.752 0-20.48 8.704-20.48 20.48 0 11.264 8.704 20.48 20.48 20.48h202.24c10.752 0 20.48-8.704 20.48-20.48-0.512-11.776-9.216-20.48-20.48-20.48z m-30.72 60.416H440.32c-10.752 0-20.48 8.704-20.48 20.48 0 11.264 8.704 20.48 20.48 20.48h141.824c10.752 0 20.48-8.704 20.48-20.48-0.512-11.776-9.728-20.48-20.992-20.48zM146.944 452.096H66.048c-10.752 0-20.48 8.704-20.48 20.48 0 11.264 8.704 20.48 20.48 20.48h80.896c10.752 0 20.48-8.704 20.48-20.48-0.512-11.264-9.216-20.48-20.48-20.48z m808.96 0h-80.896c-10.752 0-20.48 8.704-20.48 20.48 0 11.264 8.704 20.48 20.48 20.48h80.896c10.752 0 20.48-8.704 20.48-20.48 0-11.264-9.216-20.48-20.48-20.48zM221.696 731.648l-39.424 39.424c-7.68 7.68-7.68 21.504 0 29.184s21.504 7.68 29.184 0l39.424-39.424c7.68-7.68 7.68-21.504 0-29.184-7.168-8.192-19.968-8.192-29.184 0zM809.472 144.896l-39.424 39.424c-7.68 7.68-7.68 21.504 0 29.184s21.504 7.68 29.184 0l39.424-39.424c7.68-7.68 7.68-21.504 0-29.184-8.192-7.68-21.504-7.68-29.184 0zM222.72 214.016c7.68 7.68 21.504 7.68 29.184 0s7.68-21.504 0-29.184l-39.424-39.424c-7.68-7.68-21.504-7.68-29.184 0s-7.68 21.504 0 29.184l39.424 39.424z m576.512 517.632c-7.68-7.68-21.504-7.68-29.184 0s-7.68 21.504 0 29.184l39.424 39.424c7.68 7.68 21.504 7.68 29.184 0s7.68-21.504 0-29.184l-39.424-39.424zM510.976 139.264c10.752 0 20.48-8.704 20.48-20.48V37.888c0-10.752-8.704-20.48-20.48-20.48-11.264 0-20.48 8.704-20.48 20.48v80.896c0 10.752 9.728 20.48 20.48 20.48z m0 39.936C343.04 179.2 207.872 314.368 207.872 482.816c0 108.032 56.32 203.264 141.824 256.512v107.008c0 22.528 18.432 40.448 40.448 40.448h242.688c22.528 0 40.448-18.432 40.448-40.448v-106.496c84.992-53.76 141.824-148.48 141.824-256.512C814.08 314.88 678.912 179.2 510.976 179.2z m140.8 526.336c-11.776 7.168-19.456 20.48-19.456 34.304v107.008h-100.864v-175.104l96.256-95.232c7.168-7.168 7.168-19.456 0-27.136-7.168-7.168-20.48-7.168-27.136 0l-89.088 88.064-89.088-88.064c-7.168-7.168-20.48-7.168-27.136 0-7.168 7.168-7.168 19.456 0 27.136L491.52 671.744v175.104H389.632v-107.008c0-14.336-7.168-26.112-19.456-34.304-76.8-48.64-122.368-131.072-122.368-222.72C247.808 338.432 366.08 220.16 510.976 220.16c144.896 0 263.168 118.272 263.168 263.168 0 90.624-45.568 173.568-122.368 222.208z" fill="#333333" p-id="2826"></path><path d="M774.144 482.816c0-144.896-118.272-263.168-263.168-263.168-144.896 0-263.168 118.272-263.168 263.168 0 91.136 45.568 174.08 122.368 222.72 11.776 7.68 19.456 20.48 19.456 34.304v107.008h100.864v-175.104L394.24 576.512c-7.168-7.68-7.168-20.48 0-27.136 7.168-7.168 20.48-7.168 27.136 0l89.088 88.064 89.088-88.064c7.168-7.168 20.48-7.168 27.136 0 7.168 7.68 7.168 20.48 0 27.136l-96.256 95.232v175.104h100.864v-107.008c0-14.336 7.168-27.136 19.456-34.304 77.824-48.64 123.392-131.584 123.392-222.72zM426.496 324.608C379.904 355.84 346.112 402.944 330.24 455.68a24.576 24.576 0 0 1-23.552 17.92c-2.56 0-4.608-0.512-7.168-1.024-13.312-4.096-20.992-17.408-16.896-30.72 18.944-64.512 59.904-120.832 115.712-158.72 11.264-7.68 26.624-4.608 34.304 6.656 8.192 11.776 5.12 27.136-6.144 34.816z" fill="#FFE600" p-id="2827"></path></svg>