<?xml version="1.0" standalone="no"?>
<!DOCTYPE svg PUBLIC "-//W3C//DTD SVG 1.1//EN" "http://www.w3.org/Graphics/SVG/1.1/DTD/svg11.dtd"><svg t="1661933850412"
    class="icon" viewBox="0 0 1024 1024" version="1.1" xmlns="http://www.w3.org/2000/svg" p-id="2815"
    xmlns:xlink="http://www.w3.org/1999/xlink" width="200" height="200">
    <path
        d="M512 15c-24.852 0-45 20.148-45 45 0 1.846 0.124 3.664 0.34 5.452l14.66 117.92L512 212l30-28.626 14.66-117.92c0.216-1.788 0.34-3.606 0.34-5.452C557 35.148 536.852 15 512 15zM160.568 160.568c-17.574 17.574-17.574 46.066 0 63.64a45.338 45.338 0 0 0 4.096 3.614l93.748 73.016 41.456-0.97 0.97-41.456-73.016-93.748a45.338 45.338 0 0 0-3.614-4.096c-17.574-17.574-46.066-17.574-63.64 0zM15 512c0 24.852 20.148 45 45 45 1.846 0 3.664-0.124 5.452-0.34l117.92-14.66L212 512l-28.626-30-117.92-14.66a45.42 45.42 0 0 0-5.452-0.34C35.148 467 15 487.148 15 512zM160.568 863.432c17.574 17.574 46.066 17.574 63.64 0a45.338 45.338 0 0 0 3.614-4.096l73.016-93.748-0.97-41.456-41.456-0.97-93.748 73.016a45.338 45.338 0 0 0-4.096 3.614c-17.574 17.574-17.574 46.066 0 63.64z"
        fill="#FF6523" p-id="2816"></path>
    <path
        d="M512 1009c24.852 0 45-20.148 45-45 0-1.846-0.124-3.664-0.34-5.452l-14.66-117.92L512 812l-30 28.626-14.66 117.92a45.42 45.42 0 0 0-0.34 5.452c0 24.854 20.148 45.002 45 45.002zM863.432 863.432c17.574-17.574 17.574-46.066 0-63.64a45.338 45.338 0 0 0-4.096-3.614l-93.748-73.016-41.456 0.97-0.97 41.456 73.016 93.748a45.338 45.338 0 0 0 3.614 4.096c17.574 17.574 46.066 17.574 63.64 0zM1009 512c0-24.852-20.148-45-45-45-1.846 0-3.664 0.124-5.452 0.34l-117.92 14.66L812 512l28.626 30 117.92 14.66c1.788 0.216 3.606 0.34 5.452 0.34 24.854 0 45.002-20.148 45.002-45zM863.432 160.568c-17.574-17.574-46.066-17.574-63.64 0a45.338 45.338 0 0 0-3.614 4.096l-73.016 93.748 0.97 41.456 41.456 0.97 93.748-73.016a45.338 45.338 0 0 0 4.096-3.614c17.574-17.574 17.574-46.066 0-63.64z"
        fill="#FF451B" p-id="2817"></path>
    <path
        d="M515.48 182.02C695.84 183.9 842 331.2 842 512s-146.16 328.1-326.52 329.98C662.76 839.68 752 512 752 512S662.76 184.32 515.48 182.02z"
        fill="#FF6523" p-id="2818"></path>
    <path
        d="M515.48 182.02C662.76 184.32 782 331.46 782 512s-119.24 327.68-266.52 329.98c-1.16 0.02-2.32 0.02-3.48 0.02-181.96 0-330-148.04-330-330S330.04 182 512 182c1.16 0 2.32 0 3.48 0.02zM752 512c0-132.342-107.658-240-240-240s-240 107.658-240 240 107.658 240 240 240 240-107.658 240-240z"
        fill="#FF852B" p-id="2819"></path>
    <path d="M512 422v180c49.626 0 90-40.374 90-90s-40.374-90-90-90z" fill="#FFD87C" p-id="2820"></path>
    <path d="M542 512c0-49.626-13.458-90-30-90-49.626 0-90 40.374-90 90s40.374 90 90 90c16.542 0 30-40.374 30-90z"
        fill="#FFEBBE" p-id="2821"></path>
    <path d="M512 512m-30 0a30 30 0 1 0 60 0 30 30 0 1 0-60 0Z" fill="#FF6523" p-id="2822"></path>
    <path
        d="M512 242c-148.878 0-270 121.122-270 270s121.122 270 270 270 270-121.122 270-270-121.122-270-270-270z m0 480c-115.794 0-210-94.206-210-210s94.206-210 210-210 210 94.206 210 210-94.206 210-210 210z"
        fill="#FFD87C" p-id="2823"></path>
    <path
        d="M964 452a60.74 60.74 0 0 0-7.302 0.456l-102.878 12.79c-8.198-60.232-31.994-115.564-67.18-161.79l81.958-63.834a60.754 60.754 0 0 0 5.44-4.808c11.334-11.332 17.574-26.4 17.574-42.426s-6.242-31.094-17.574-42.426c-23.392-23.394-61.458-23.396-84.856 0.004-1.66 1.66-3.276 3.49-4.838 5.482l-63.798 81.914c-46.226-35.188-101.558-58.982-161.79-67.18l12.796-102.93A61.24 61.24 0 0 0 572 60c0-33.084-26.916-60-60-60s-60 26.916-60 60c0 2.354 0.152 4.796 0.456 7.302l12.79 102.878c-60.232 8.198-115.564 31.992-161.79 67.18l-63.834-81.958a60.754 60.754 0 0 0-4.808-5.44c-11.332-11.334-26.4-17.574-42.426-17.574s-31.094 6.242-42.426 17.574c-23.394 23.394-23.394 61.458 0.004 84.856 1.66 1.66 3.49 3.276 5.482 4.838l81.912 63.798c-35.186 46.226-58.982 101.558-67.18 161.79l-102.93-12.794A60.77 60.77 0 0 0 60 452c-33.084 0-60 26.916-60 60s26.916 60 60 60a60.74 60.74 0 0 0 7.302-0.456l102.878-12.79c8.198 60.232 31.994 115.564 67.18 161.79l-81.958 63.834a60.754 60.754 0 0 0-5.44 4.808c-11.334 11.332-17.574 26.4-17.574 42.426s6.242 31.094 17.574 42.426c11.696 11.698 27.06 17.544 42.424 17.544s30.732-5.85 42.432-17.548c1.66-1.66 3.276-3.49 4.838-5.482l63.798-81.914c46.226 35.188 101.558 58.982 161.79 67.18l-12.796 102.93A61.24 61.24 0 0 0 452 964c0 33.084 26.916 60 60 60s60-26.916 60-60a60.74 60.74 0 0 0-0.456-7.302l-12.79-102.878c60.232-8.198 115.564-31.992 161.79-67.18l63.834 81.958a60.754 60.754 0 0 0 4.808 5.44c11.332 11.334 26.4 17.574 42.426 17.574s31.094-6.242 42.426-17.574c23.394-23.394 23.394-61.458-0.004-84.856a60.818 60.818 0 0 0-5.482-4.838l-81.912-63.798c35.186-46.226 58.982-101.558 67.18-161.79l102.93 12.794c2.468 0.298 4.908 0.45 7.25 0.45 33.084 0 60-26.916 60-60s-26.916-60-60-60zM512 827c-173.692 0-315-141.308-315-315S338.308 197 512 197 827 338.308 827 512 685.692 827 512 827zM807.98 173.922c0.804-1.026 1.596-1.924 2.418-2.748 11.698-11.694 30.73-11.696 42.426 0a29.806 29.806 0 0 1 8.788 21.214 29.8 29.8 0 0 1-11.494 23.6l-82.658 64.38a347.802 347.802 0 0 0-23.828-23.828l64.348-82.618zM482.232 63.646A30.03 30.03 0 0 1 482 60c0-16.542 13.458-30 30-30s30 13.458 30 30c0 1.162-0.076 2.358-0.226 3.602l-12.906 103.816a349.534 349.534 0 0 0-16.868-0.416c-5.656 0-11.278 0.146-16.868 0.416l-12.9-103.772zM173.922 216.02a30.394 30.394 0 0 1-2.748-2.418c-11.696-11.698-11.696-30.73 0-42.426a29.806 29.806 0 0 1 21.214-8.788 29.8 29.8 0 0 1 23.6 11.494l64.38 82.658a347.802 347.802 0 0 0-23.828 23.828L173.922 216.02zM63.646 541.768c-1.286 0.156-2.478 0.232-3.646 0.232-16.542 0-30-13.458-30-30s13.458-30 30-30c1.162 0 2.358 0.076 3.602 0.226l103.814 12.906c-0.27 5.59-0.418 11.212-0.418 16.868s0.146 11.278 0.418 16.868l-103.77 12.9z m152.374 308.31c-0.804 1.026-1.596 1.924-2.418 2.748-11.698 11.696-30.73 11.698-42.426 0a29.806 29.806 0 0 1-8.788-21.214 29.8 29.8 0 0 1 11.494-23.6l82.658-64.38a347.802 347.802 0 0 0 23.828 23.828l-64.348 82.618z m325.748 110.276c0.156 1.286 0.232 2.478 0.232 3.646 0 16.542-13.458 30-30 30s-30-13.458-30-30c0-1.162 0.076-2.358 0.226-3.602l12.906-103.814c5.59 0.27 11.212 0.416 16.868 0.416 5.656 0 11.278-0.146 16.868-0.416l12.9 103.77z m308.31-152.374c1.026 0.804 1.924 1.596 2.748 2.418 11.696 11.698 11.696 30.73 0 42.426a29.806 29.806 0 0 1-21.214 8.788 29.8 29.8 0 0 1-23.6-11.494l-64.38-82.658a347.802 347.802 0 0 0 23.828-23.828l82.618 64.348zM964 542c-1.162 0-2.358-0.076-3.602-0.226l-103.814-12.906c0.27-5.59 0.418-11.212 0.418-16.868s-0.146-11.278-0.418-16.868l103.77-12.9A30.03 30.03 0 0 1 964 482c16.542 0 30 13.458 30 30s-13.458 30-30 30z"
        p-id="2824"></path>
    <path
        d="M351.678 669.694c0.378 0.484 0.778 0.958 1.224 1.404 0.446 0.446 0.918 0.846 1.404 1.224C394.938 712.296 450.634 737 512 737c61.366 0 117.062-24.704 157.696-64.678 0.484-0.378 0.958-0.778 1.404-1.224 0.446-0.446 0.846-0.918 1.224-1.404C712.296 629.062 737 573.366 737 512s-24.704-117.062-64.678-157.694a15.184 15.184 0 0 0-1.224-1.404 14.928 14.928 0 0 0-1.404-1.224C629.062 311.704 573.366 287 512 287c-61.366 0-117.062 24.704-157.696 64.678a15.184 15.184 0 0 0-1.404 1.224 14.928 14.928 0 0 0-1.224 1.404C311.704 394.938 287 450.634 287 512s24.704 117.062 64.678 157.694z m12.306-284.498l63.954 63.954a104.468 104.468 0 0 0-19.85 47.848h-90.518c3.25-42.508 20.196-81.242 46.414-111.802zM706.428 497h-90.518a104.468 104.468 0 0 0-19.85-47.848l63.954-63.954c26.22 30.558 43.166 69.292 46.414 111.802z m-46.412 141.804l-63.954-63.954a104.468 104.468 0 0 0 19.85-47.848h90.518c-3.25 42.508-20.196 81.242-46.414 111.802zM512 437c41.356 0 75 33.644 75 75s-33.644 75-75 75-75-33.644-75-75 33.644-75 75-75z m-62.848 159.062a104.478 104.478 0 0 0 47.848 19.85v90.518c-42.51-3.25-81.244-20.194-111.804-46.412l63.956-63.956z m77.848 19.85a104.468 104.468 0 0 0 47.848-19.85l63.954 63.954c-30.56 26.218-69.294 43.164-111.804 46.412v-90.516z m47.848-187.974a104.478 104.478 0 0 0-47.848-19.85v-90.518c42.51 3.25 81.244 20.194 111.804 46.412l-63.956 63.956z m-77.848-19.85a104.468 104.468 0 0 0-47.848 19.85l-63.954-63.954c30.56-26.218 69.294-43.164 111.804-46.412v90.516zM408.088 527a104.468 104.468 0 0 0 19.85 47.848l-63.954 63.954c-26.218-30.56-43.164-69.294-46.412-111.804h90.516z"
        p-id="2825"></path>
    <path
        d="M512 557c24.814 0 45-20.186 45-45s-20.186-45-45-45-45 20.186-45 45 20.186 45 45 45z m0-60c8.272 0 15 6.728 15 15s-6.728 15-15 15-15-6.728-15-15 6.728-15 15-15z"
        p-id="2826"></path>
    <path
        d="M512 227c-64.362 0-127.508 22.172-177.804 62.43a15 15 0 1 0 18.746 23.42C398.59 276.314 453.592 257 512 257c140.608 0 255 114.392 255 255S652.608 767 512 767 257 652.608 257 512c0-58.408 19.314-113.41 55.852-159.058a15 15 0 0 0-2.336-21.084 15.002 15.002 0 0 0-21.084 2.338C249.172 384.492 227 447.638 227 512c0 157.15 127.85 285 285 285S797 669.15 797 512 669.15 227 512 227z"
        p-id="2827"></path>
</svg>