<?xml version="1.0" standalone="no"?><!DOCTYPE svg PUBLIC "-//W3C//DTD SVG 1.1//EN" "http://www.w3.org/Graphics/SVG/1.1/DTD/svg11.dtd"><svg t="1661933984441" class="icon" viewBox="0 0 1024 1024" version="1.1" xmlns="http://www.w3.org/2000/svg" p-id="2965" xmlns:xlink="http://www.w3.org/1999/xlink" width="200" height="200"><path d="M102.4 102.4v819.2h819.2V102.4H102.4z m361.472 444.757333V849.92h-75.434667v-303.104H281.941333v-32.768l1.024-33.792c0.341333-0.682667 65.194667-0.682667 144.042667-0.682667l143.018667 0.341334 0.341333 33.450666 0.341333 33.450667h-106.837333z m385.706667 240.64c-12.970667 34.133333-45.397333 57.344-90.453334 64.853334-13.994667 2.389333-47.445333 2.048-62.464-0.682667-32.768-5.802667-64.170667-22.186667-83.285333-43.349333-7.509333-8.192-22.186667-30.037333-21.162667-31.744 0.341333-0.682667 3.754667-2.730667 7.509334-4.778667l30.378666-17.408 23.552-13.653333 4.778667 7.168c6.826667 10.581333 21.845333 24.917333 31.061333 29.696 26.282667 13.653333 62.122667 11.946667 79.872-4.096 7.509333-6.826667 10.581333-13.994667 10.581334-24.576 0-9.557333-1.024-13.653333-6.144-20.821334-6.485333-9.216-19.456-16.725333-56.32-32.768-42.325333-18.090667-60.416-29.354667-77.141334-47.445333-9.557333-10.24-18.773333-26.965333-22.528-40.96-3.072-11.605333-3.754667-40.618667-1.365333-52.224 8.533333-40.96 39.594667-69.290667 83.968-77.824 14.336-2.730667 48.128-1.706667 62.122667 1.706667 20.821333 5.12 36.522667 14.336 51.2 29.354666 7.509333 8.192 18.773333 22.869333 19.797333 26.282667 0.341333 1.024-35.498667 24.917333-57.002667 38.229333-0.682667 0.341333-3.754667-2.730667-7.509333-8.192-10.581333-15.36-21.504-21.845333-38.570667-23.210666-24.917333-1.706667-40.96 11.264-40.618666 33.109333 0 6.485333 1.024 10.24 3.413333 15.36 5.461333 11.264 15.701333 18.090667 47.445333 31.744 58.709333 25.258667 83.626667 41.984 99.328 65.536 17.408 27.306667 21.504 69.632 9.557334 100.693333z" fill="#007ACC" p-id="2966"></path><path d="M740.693333 622.592c-31.744-13.653333-41.984-20.48-47.445333-31.744-2.730667-5.12-3.413333-8.874667-3.413333-15.36-0.341333-21.845333 15.701333-34.816 40.618666-33.109333 17.066667 1.024 27.989333 7.850667 38.570667 23.210666 3.413333 5.12 6.485333 8.533333 7.509333 8.192 21.504-13.312 57.344-37.205333 57.002667-38.229333-1.024-3.413333-11.946667-18.090667-19.797333-26.282667-14.677333-15.018667-30.378667-24.234667-51.2-29.354666-13.994667-3.413333-47.786667-4.437333-62.122667-1.706667-44.373333 8.533333-75.434667 36.864-83.968 77.824-2.389333 11.605333-1.706667 40.618667 1.365333 52.224 3.754667 13.994667 12.970667 30.72 22.528 40.96 16.725333 18.090667 34.816 29.354667 77.141334 47.445333 36.864 16.042667 49.834667 23.552 56.32 32.768 5.12 7.168 6.144 11.264 6.144 20.821334 0 10.581333-3.072 17.749333-10.581334 24.576-17.749333 15.701333-53.589333 17.749333-79.872 4.096-9.216-4.778667-24.234667-19.114667-31.061333-29.696l-4.778667-7.168-23.552 13.653333-30.378666 17.408c-3.754667 2.048-7.168 4.437333-7.509334 4.778667-1.024 1.706667 13.653333 23.210667 21.162667 31.744 19.114667 21.162667 50.517333 37.546667 83.285333 43.349333 15.018667 2.730667 48.469333 3.072 62.464 0.682667 45.397333-7.509333 77.482667-30.72 90.453334-64.853334 11.946667-31.402667 7.850667-73.386667-9.557334-100.010666-15.36-24.234667-40.618667-40.96-99.328-66.218667zM569.685333 480.256l-143.018666-0.341333c-78.506667 0-143.701333 0-144.042667 0.682666l-1.024 33.792v32.768h106.496V849.92h75.434667v-303.104H570.026667l-0.341334-33.450667v-33.109333z" fill="#FFFFFF" p-id="2967"></path></svg>